<svg width="292" height="120" fill="none" xmlns="http://www.w3.org/2000/svg"><path d="M79.886 73.15h11.53v26.795h-11.53v17.589H50.567V99.945H0V73.151L34.425 2.466H67.04L32.283 73.15h18.283V52.438h29.32v20.713zm100.641 30.576C172.182 114.575 160.487 120 145.443 120c-15.043 0-26.793-5.425-35.248-16.274C101.849 92.767 97.677 78.192 97.677 60c0-18.301 4.172-32.822 12.518-43.562C118.54 5.48 130.29 0 145.443 0c15.044 0 26.739 5.48 35.084 16.438 8.456 10.96 12.683 25.48 12.683 43.562 0 18.082-4.227 32.657-12.683 43.726zm-35.084-75.123c-12.188 0-18.283 10.465-18.283 31.397 0 20.931 6.095 31.397 18.283 31.397 12.189 0 18.284-10.466 18.284-31.397 0-20.931-6.095-31.397-18.284-31.397zM280.47 73.15H292v26.795h-11.53v17.589h-29.319V99.945h-50.567V73.151l34.425-70.685h32.613L232.868 73.15h18.283V52.438h29.319v20.713z" fill="#EEE"/></svg>