<svg width="18" height="18" fill="none" xmlns="http://www.w3.org/2000/svg"><path d="M13.815 7.017a3.958 3.958 0 001.438-3.052A3.97 3.97 0 0011.287 0a3.97 3.97 0 00-3.876 4.798 3.97 3.97 0 00-4.66 3.904 3.96 3.96 0 001.437 3.052A6.727 6.727 0 000 17.976h1.407a5.316 5.316 0 015.31-5.31 3.97 3.97 0 003.876-4.798c.225.04.458.061.695.061 1.725 0 3.26.828 4.23 2.107l.954-1.061a6.75 6.75 0 00-2.657-1.958zM6.716 11.26a2.561 2.561 0 01-2.558-2.558 2.561 2.561 0 012.558-2.559 2.561 2.561 0 012.559 2.559 2.561 2.561 0 01-2.559 2.558zm4.572-4.737A2.561 2.561 0 018.73 3.965a2.561 2.561 0 012.558-2.558 2.561 2.561 0 012.558 2.558 2.561 2.561 0 01-2.558 2.558z" fill="#000"/><path d="M16.953 10.543l-4.885 5.44-2.757-2.625-.97 1.02L12.147 18 18 11.483l-1.047-.94z" fill="#000"/></svg>