<svg width="30" height="30" fill="none" xmlns="http://www.w3.org/2000/svg"><path fill-rule="evenodd" clip-rule="evenodd" d="M16.376 3.702c-.806.361-1.432.8-2.09 1.464-1.206 1.22-1.77 2.544-1.87 4.382-.037.707-.078.87-.277 1.107-.246.291-.765.405-1.137.25-.097-.041-.44-.346-.88-.785-.397-.395-.73-.71-.738-.699-.107.129-1.65 2.301-1.822 2.567-1.233 1.893-1.673 4.31-1.2 6.591a8.83 8.83 0 005.778 6.535c4.204 1.426 8.764-.456 10.763-4.442.78-1.556 1.104-3.551.816-5.043-.182-.948-.683-2.116-1.308-3.048-.346-.517-.493-.7-1.485-1.85-1.907-2.212-3.427-4.765-3.968-6.665a9.9 9.9 0 00-.161-.536 3.744 3.744 0 00-.421.172zm.151 2.765c.429.892.755 1.466 1.334 2.348.74 1.128 1.235 1.764 2.813 3.614.86 1.009 1.448 2.1 1.723 3.197.1.401.114.54.114 1.167 0 .758-.046 1.142-.219 1.833-.65 2.598-2.78 4.75-5.356 5.413-3.314.853-6.684-.528-8.438-3.458-.939-1.57-1.264-3.625-.861-5.448.232-1.05.645-1.937 1.414-3.03l.49-.697.299.258c.502.435.928.6 1.538.6.64 0 1.096-.171 1.546-.581.549-.5.725-.954.782-2.006.066-1.251.28-1.96.854-2.825.235-.356.726-.883 1.148-1.234l.302-.251.082.182c.045.1.24.513.435.918zm-4.275 8.036c-.403.15-.673.402-.86.802-.108.234-.12.305-.12.733 0 .555.067.796.312 1.118.523.688 1.743.749 2.372.12.49-.49.586-1.49.208-2.137a1.589 1.589 0 00-.667-.597c-.298-.131-.943-.152-1.245-.04zm2.058 2.923a229.906 229.906 0 00-2.013 2.976c-.018.046.11.057.67.057h.691l.105-.14c.15-.2 3.948-5.774 3.948-5.794 0-.01-.317-.018-.705-.018H16.3l-1.99 2.919zm-1.297-2.016c.231.232.237 1.047.01 1.31-.101.117-.342.082-.452-.066-.193-.26-.128-1.153.093-1.283a.288.288 0 01.35.04zm3.59 1.896c-.598.222-.949.718-.991 1.401-.062.985.432 1.67 1.29 1.79.801.112 1.48-.26 1.738-.955.064-.174.083-.336.083-.7 0-.43-.012-.5-.124-.743a1.618 1.618 0 00-.747-.753c-.3-.134-.941-.154-1.25-.04zm.72.867c.147.079.229.392.208.798-.024.444-.108.596-.343.617-.247.021-.381-.224-.381-.699 0-.582.213-.878.516-.716z" fill="#fff"/></svg>