<svg width="21" height="17" fill="none" xmlns="http://www.w3.org/2000/svg"><path d="M18.761 1.666a5.691 5.691 0 00-8.046 0l-.515.515-.515-.515a5.69 5.69 0 00-8.046 0C-.534 3.842-.548 7.29 1.606 9.688c1.965 2.186 7.76 6.91 8.007 7.11a.896.896 0 00.567.201h.02a.867.867 0 00.587-.202c.245-.2 6.041-4.923 8.007-7.11 2.154-2.397 2.14-5.845-.033-8.021zM17.455 8.48c-1.532 1.705-5.744 5.22-7.255 6.466-1.512-1.247-5.723-4.76-7.255-6.465-1.502-1.673-1.517-4.055-.032-5.54a3.874 3.874 0 012.749-1.14c.995 0 1.991.38 2.75 1.14l1.132 1.133a.87.87 0 00.483.244.902.902 0 00.828-.244l1.133-1.134a3.89 3.89 0 015.499 0c1.484 1.486 1.47 3.868-.032 5.54z" fill="#000"/></svg>