<svg width="12" height="12" fill="none" xmlns="http://www.w3.org/2000/svg"><path fill-rule="evenodd" clip-rule="evenodd" d="M1.353.078a.681.681 0 00-.19.19c-.07.114-.073.187-.073 1.598v1.478l-.214.114c-.3.159-.567.438-.723.753-.117.235-.133.303-.148.618-.014.298-.003.392.063.588.15.44.463.8.867.995l.155.076V9.05c0 2.494.002 2.566.072 2.682.225.368.776.353 1-.028.074-.124.075-.18.085-2.677l.01-2.55.197-.11c.391-.22.64-.522.786-.95.065-.194.077-.296.065-.584-.012-.315-.027-.376-.15-.623-.16-.326-.446-.627-.711-.75l-.185-.087L2.25 1.9C2.237.487 2.233.419 2.161.296c-.165-.28-.54-.381-.809-.218zm4.363.01a.973.973 0 00-.197.184c-.075.101-.076.126-.086 2.859l-.01 2.756-.172.084c-.244.118-.63.512-.749.762-.3.637-.17 1.383.33 1.879.115.115.295.249.399.298l.189.088.011 1.315c.011 1.267.015 1.318.088 1.417.265.356.712.356.977 0 .073-.1.077-.15.088-1.417l.011-1.315.19-.088c.103-.049.283-.183.398-.298.499-.496.63-1.242.33-1.879-.118-.25-.505-.644-.749-.762l-.172-.084-.01-2.756C6.572.398 6.572.373 6.496.27a.6.6 0 00-.489-.265.493.493 0 00-.291.081zm4.333 0a.773.773 0 00-.196.208c-.072.122-.076.19-.086 1.6l-.011 1.472-.204.107c-.289.15-.529.405-.69.732-.126.252-.14.31-.152.627-.01.272.003.399.058.571.131.416.457.798.851.998l.138.07.01 2.553c.01 2.5.012 2.555.086 2.679.224.38.775.396 1 .028.07-.116.072-.188.072-2.68V6.49l.207-.107a1.7 1.7 0 00.732-.771c.133-.277.136-.295.136-.702 0-.395-.006-.431-.117-.665a1.896 1.896 0 00-.74-.786l-.218-.116V1.866c0-1.411-.003-1.484-.072-1.597a.595.595 0 00-.804-.181z" fill="#000"/></svg>