<svg width="102" height="12" fill="none" xmlns="http://www.w3.org/2000/svg"><path d="M0 .23h8.465v2.177H5.358v9.362H3.09V2.407H0V.23zm18.759 11.54h-2.466l-.69-2.078h-4.586l-.69 2.077h-2.45L11.904.231h2.811l4.044 11.538zm-5.441-8.918L11.74 7.566h3.156l-1.578-4.714zM26.533 7.27V.23H28.8v11.54h-1.726l-4.931-7.056v7.055h-2.268V.231h1.726l4.93 7.038zm14.034-1.699h5.77v.89c0 1.649-.527 2.984-1.579 4.006C43.707 11.489 42.349 12 40.682 12c-1.775 0-3.249-.577-4.421-1.73-1.162-1.166-1.743-2.583-1.743-4.254 0-1.68.576-3.104 1.726-4.269C37.406.582 38.841 0 40.551 0c1.063 0 2.038.242 2.925.725a5.449 5.449 0 012.088 1.962l-1.94 1.12c-.274-.472-.69-.856-1.249-1.153a3.864 3.864 0 00-1.84-.445c-1.107 0-2.011.362-2.713 1.088-.701.703-1.052 1.61-1.052 2.72 0 1.087.356 1.988 1.069 2.703.712.703 1.665 1.055 2.86 1.055.865 0 1.589-.193 2.17-.577.58-.385.975-.923 1.183-1.616h-3.485v-2.01zm16.828 6.199h-2.466l-.69-2.078h-4.586l-.69 2.077h-2.45L50.54.231h2.811l4.044 11.538zm-5.441-8.918l-1.578 4.714h3.156l-1.578-4.714zM60.78.23v9.363h4.389v2.176h-6.657V.231h2.268zm7.945 0v9.363h4.39v2.176h-6.658V.231h2.269zm7.946 6.775v2.588h4.849v2.176h-7.117V.231h7.035v2.176H76.67v2.456h4.356v2.142H76.67zM91.88 11.77h-2.45l-2.317-4.006h-1.726v4.005h-2.268V.231h4.602c1.063 0 1.967.373 2.712 1.12a3.69 3.69 0 011.118 2.704c0 .714-.203 1.38-.608 1.994a3.83 3.83 0 01-1.611 1.369l2.547 4.351zm-4.16-9.414h-2.334V5.77h2.334c.427 0 .794-.165 1.101-.494.307-.34.46-.748.46-1.22 0-.473-.153-.874-.46-1.203-.307-.33-.674-.495-1.101-.495zM99.436.23H102l-3.945 7.04v4.5h-2.252v-4.5L91.875.23h2.564l2.499 4.814L99.436.231z" fill="#000"/></svg>