<svg width="15" height="20" fill="none" xmlns="http://www.w3.org/2000/svg"><path fill-rule="evenodd" clip-rule="evenodd" d="M12.5 5.833l1.873.05L15 20H0L.627 5.882h2.466V3.137C3.093 1.407 4.468 0 6.159 0h2.174C8.8 0 10 0 10.833.833c.834.834.733 1.572.733 2.304v2.726l-.617.02h.617v-.02l.934-.03zM1.726 7.06h1.367v11.764h-1.89L1.726 7.06zm2.516 11.764V7.06h9.032l.523 11.764H4.242zM10 1.668c.108.108-.143-.12 0 0-.332-.332-.735-.431-1.25-.49.148 0-.131-.016 0 0-.417-.002-2.09-.005-2.434-.002l-.157.001c-1.057 0-1.917.88-1.917 1.961v2.745h6.175V3.137c0-.405-.01-1.13-.417-1.47z" fill="#000"/></svg>